<svg width="54" height="33" viewBox="0 0 54 33" fill="none" xmlns="http://www.w3.org/2000/svg">
<path d="M32.0693 4.38133C31.519 3.88746 31.2194 3.23425 31.2336 2.55931C31.2479 1.88436 31.5748 1.24039 32.1457 0.763064C32.7165 0.285734 33.4866 0.0123144 34.2937 0.000405891C35.1009 -0.0115027 35.882 0.23903 36.4726 0.699223L53.0889 14.594C53.6723 15.0825 54 15.7446 54 16.435C54 17.1254 53.6723 17.7876 53.0889 18.2761L36.4726 32.1708C36.1874 32.4268 35.8434 32.6321 35.4613 32.7745C35.0791 32.9169 34.6665 32.9934 34.2482 32.9996C33.8299 33.0058 33.4144 32.9414 33.0264 32.8104C32.6385 32.6794 32.2861 32.4843 31.9902 32.2369C31.6944 31.9895 31.4612 31.6949 31.3045 31.3705C31.1478 31.0461 31.0708 30.6986 31.0782 30.3488C31.0856 29.999 31.1771 29.654 31.3474 29.3344C31.5177 29.0148 31.7632 28.7272 32.0693 28.4887L43.3684 19.0403H3.11554C2.28925 19.0403 1.4968 18.7658 0.912521 18.2772C0.328243 17.7886 0 17.126 0 16.435C0 15.7441 0.328243 15.0814 0.912521 14.5928C1.4968 14.1042 2.28925 13.8298 3.11554 13.8298H43.3684L32.0693 4.38133Z" fill="black"/>
</svg>
