<svg width="54" height="33" viewBox="0 0 54 33" fill="none" xmlns="http://www.w3.org/2000/svg">
<path d="M21.9307 4.38133C22.481 3.88746 22.7806 3.23425 22.7664 2.55931C22.7521 1.88436 22.4252 1.24039 21.8543 0.763064C21.2835 0.285734 20.5134 0.0123144 19.7063 0.000405891C18.8991 -0.0115027 18.118 0.23903 17.5274 0.699223L0.911148 14.594C0.327709 15.0825 0 15.7446 0 16.435C0 17.1254 0.327709 17.7876 0.911148 18.2761L17.5274 32.1708C17.8126 32.4268 18.1566 32.6321 18.5387 32.7745C18.9209 32.9169 19.3335 32.9934 19.7518 32.9996C20.1701 33.0058 20.5856 32.9414 20.9736 32.8104C21.3615 32.6794 21.7139 32.4843 22.0098 32.2369C22.3056 31.9895 22.5388 31.6949 22.6955 31.3705C22.8522 31.0461 22.9292 30.6986 22.9218 30.3488C22.9144 29.999 22.8229 29.654 22.6526 29.3344C22.4823 29.0148 22.2368 28.7272 21.9307 28.4887L10.6316 19.0403H50.8845C51.7108 19.0403 52.5032 18.7658 53.0875 18.2772C53.6718 17.7886 54 17.126 54 16.435C54 15.7441 53.6718 15.0814 53.0875 14.5928C52.5032 14.1042 51.7108 13.8298 50.8845 13.8298H10.6316L21.9307 4.38133Z" fill="black"/>
</svg>
