<svg width="20" height="16" viewBox="0 0 20 16" fill="none" xmlns="http://www.w3.org/2000/svg">
<path d="M12 9H17V7H12V9ZM12 6H17V4H12V6ZM3 12H11V11.45C11 10.7 10.6333 10.1043 9.9 9.663C9.16667 9.22167 8.2 9.00067 7 9C5.8 8.99933 4.83333 9.22033 4.1 9.663C3.36667 10.1057 3 10.7013 3 11.45V12ZM7 8C7.55 8 8.021 7.80433 8.413 7.413C8.805 7.02167 9.00067 6.55067 9 6C8.99933 5.44933 8.80367 4.97867 8.413 4.588C8.02233 4.19733 7.55133 4.00133 7 4C6.44867 3.99867 5.978 4.19467 5.588 4.588C5.198 4.98133 5.002 5.452 5 6C4.998 6.548 5.194 7.019 5.588 7.413C5.982 7.807 6.45267 8.00267 7 8ZM0 16V0H20V16H0ZM2 14H18V2H2V14Z" fill="#F9A51A"/>
</svg>
