<svg width="20" height="20" viewBox="0 0 20 20" fill="none" xmlns="http://www.w3.org/2000/svg">
<path fill-rule="evenodd" clip-rule="evenodd" d="M6.31715 13.6838C10.1679 17.5346 13.7362 17.9562 14.7838 17.9952C16.0496 18.0413 17.3416 17.0078 17.9004 15.9492C17.0091 14.9036 15.8483 14.0924 14.5775 13.2131C13.8273 13.9622 12.903 15.3543 11.6721 14.8556C10.9721 14.5741 9.24351 13.778 7.73326 12.2667C6.22301 10.7555 5.42682 9.02789 5.1434 8.32885C4.64466 7.09601 6.04074 6.16963 6.79086 5.41952C5.91155 4.12759 5.11436 2.93682 4.0708 2.09056C2.99721 2.65139 1.95766 3.9333 2.00473 5.21621C2.04379 6.26377 2.46541 9.83209 6.31715 13.6838ZM14.7096 19.9972C13.2675 19.9441 9.18041 19.3793 4.90004 15.0999C0.620667 10.8196 0.0568266 6.73347 0.00274609 5.29032C-0.0773732 3.09105 1.60714 0.954866 3.55303 0.120624C3.78736 0.0194399 4.04397 -0.0190838 4.29767 0.00883275C4.55138 0.0367493 4.79347 0.130147 5.00019 0.279861C6.61059 1.45461 7.72124 3.23426 8.67566 4.62834C8.87421 4.91822 8.96516 5.26839 8.93279 5.61826C8.90042 5.96812 8.74676 6.29566 8.4984 6.54419L7.14038 7.90321C7.45585 8.59925 8.0978 9.79904 9.14937 10.8506C10.2009 11.9022 11.4007 12.5441 12.0978 12.8596L13.4548 11.5016C13.704 11.2522 14.0329 11.0983 14.3841 11.067C14.7353 11.0357 15.0863 11.1289 15.3756 11.3303C16.7978 12.3158 18.4682 13.4104 19.6861 14.9697C19.8479 15.178 19.9509 15.4258 19.9842 15.6874C20.0175 15.9491 19.9799 16.2148 19.8753 16.457C19.0371 18.4129 16.9159 20.0783 14.7096 19.9972Z" fill="#F9A51A"/>
</svg>
